<?xml version="1.0" encoding="utf-8"?>
<svg x="0pt" y="0pt" width="1024pt" height="640pt" viewBox="0 0 1024 640" xmlns="http://www.w3.org/2000/svg" xmlns:xlink="http://www.w3.org/1999/xlink">
  <g id="Layer 1">
    <path id="Path" style="fill:#aaaaaa;fill-opacity:1;fill-rule:nonzero;opacity:1;stroke:none;" d="M1512.26,445.719"/>
    <path id="Path" style="fill:#aaaaaa;fill-opacity:1;fill-rule:nonzero;opacity:1;stroke:none;" d="M727.189,170.541"/>
    <g id="Text Copy">
      <g id="Text Copy">
        <path style="fill:#000000;fill-opacity:1;fill-rule:nonzero;opacity:1;stroke:none;" d="M143.584,356.432 C143.702,354.465,144.193,352.833,145.059,351.535 C145.924,350.237,147.025,349.195,148.363,348.408 C149.7,347.621,151.204,347.061,152.876,346.727 C154.548,346.392,156.229,346.225,157.921,346.225 C159.455,346.225,161.008,346.333,162.582,346.55 C164.155,346.766,165.591,347.189,166.889,347.818 C168.187,348.447,169.249,349.323,170.075,350.444 C170.901,351.565,171.314,353.049,171.314,354.898 C171.314,354.898,171.314,370.769,171.314,370.769 C171.314,372.146,171.392,373.463,171.55,374.722 C171.707,375.981,171.982,376.925,172.376,377.554 C172.376,377.554,163.88,377.554,163.88,377.554 C163.722,377.082,163.594,376.6,163.496,376.109 C163.398,375.617,163.329,375.115,163.29,374.604 C161.952,375.981,160.379,376.944,158.57,377.495 C156.76,378.046,154.912,378.321,153.024,378.321 C151.568,378.321,150.211,378.144,148.953,377.79 C147.694,377.436,146.593,376.885,145.649,376.138 C144.705,375.391,143.967,374.447,143.436,373.306 C142.905,372.165,142.64,370.808,142.64,369.235 C142.64,367.504,142.944,366.079,143.554,364.958 C144.164,363.837,144.95,362.942,145.914,362.273 C146.878,361.604,147.979,361.103,149.218,360.769 C150.457,360.434,151.706,360.169,152.965,359.972 C154.223,359.775,155.462,359.618,156.682,359.5 C157.901,359.382,158.983,359.205,159.927,358.969 C160.871,358.733,161.618,358.389,162.169,357.937 C162.719,357.484,162.975,356.825,162.936,355.96 C162.936,355.055,162.788,354.338,162.493,353.807 C162.198,353.276,161.805,352.863,161.313,352.568 C160.821,352.273,160.251,352.076,159.602,351.978 C158.953,351.879,158.255,351.83,157.508,351.83 C155.856,351.83,154.558,352.184,153.614,352.892 C152.67,353.6,152.119,354.78,151.962,356.432 C151.962,356.432,143.584,356.432,143.584,356.432 z M162.936,362.627 C162.582,362.942,162.139,363.188,161.608,363.365 C161.077,363.542,160.507,363.689,159.897,363.807 C159.287,363.925,158.648,364.023,157.98,364.102 C157.311,364.181,156.642,364.279,155.974,364.397 C155.344,364.515,154.725,364.672,154.115,364.869 C153.505,365.066,152.974,365.331,152.522,365.666 C152.07,366,151.706,366.423,151.431,366.934 C151.155,367.445,151.018,368.094,151.018,368.881 C151.018,369.628,151.155,370.258,151.431,370.769 C151.706,371.28,152.08,371.684,152.552,371.979 C153.024,372.274,153.574,372.48,154.204,372.598 C154.833,372.716,155.482,372.775,156.151,372.775 C157.803,372.775,159.081,372.5,159.986,371.949 C160.89,371.398,161.559,370.74,161.992,369.973 C162.424,369.206,162.69,368.429,162.788,367.642 C162.886,366.855,162.936,366.226,162.936,365.754 C162.936,365.754,162.936,362.627,162.936,362.627 z M199.457,362.214 C199.457,363.473,199.339,364.692,199.103,365.872 C198.867,367.052,198.473,368.104,197.923,369.029 C197.372,369.953,196.634,370.69,195.71,371.241 C194.786,371.792,193.635,372.067,192.259,372.067 C190.961,372.067,189.849,371.782,188.925,371.212 C188.001,370.641,187.234,369.894,186.624,368.97 C186.014,368.045,185.572,366.993,185.297,365.813 C185.021,364.633,184.884,363.453,184.884,362.273 C184.884,361.014,185.011,359.805,185.267,358.645 C185.523,357.484,185.936,356.452,186.506,355.547 C187.076,354.642,187.834,353.915,188.778,353.364 C189.722,352.813,190.882,352.538,192.259,352.538 C193.635,352.538,194.776,352.813,195.681,353.364 C196.585,353.915,197.323,354.633,197.893,355.518 C198.463,356.402,198.867,357.425,199.103,358.586 C199.339,359.746,199.457,360.955,199.457,362.214 z M199.575,373.66 C199.575,373.66,199.575,377.554,199.575,377.554 C199.575,377.554,207.54,377.554,207.54,377.554 C207.54,377.554,207.54,335.428,207.54,335.428 C207.54,335.428,199.162,335.428,199.162,335.428 C199.162,335.428,199.162,350.768,199.162,350.768 C199.162,350.768,199.044,350.768,199.044,350.768 C198.1,349.273,196.811,348.143,195.179,347.376 C193.547,346.609,191.826,346.225,190.017,346.225 C187.775,346.225,185.808,346.668,184.117,347.553 C182.425,348.438,181.019,349.608,179.898,351.063 C178.777,352.518,177.931,354.2,177.361,356.108 C176.791,358.015,176.506,359.992,176.506,362.037 C176.506,364.161,176.791,366.206,177.361,368.173 C177.931,370.14,178.777,371.88,179.898,373.395 C181.019,374.909,182.445,376.109,184.176,376.994 C185.906,377.879,187.912,378.321,190.194,378.321 C192.2,378.321,193.999,377.957,195.592,377.23 C197.185,376.502,198.473,375.312,199.457,373.66 C199.457,373.66,199.575,373.66,199.575,373.66 z M230.727,377.554 C230.727,377.554,241.052,347.051,241.052,347.051 C241.052,347.051,232.733,347.051,232.733,347.051 C232.733,347.051,226.302,367.878,226.302,367.878 C226.302,367.878,226.184,367.878,226.184,367.878 C226.184,367.878,219.753,347.051,219.753,347.051 C219.753,347.051,210.962,347.051,210.962,347.051 C210.962,347.051,221.405,377.554,221.405,377.554 C221.405,377.554,230.727,377.554,230.727,377.554 z M265.065,359.028 C265.065,359.028,251.436,359.028,251.436,359.028 C251.475,358.438,251.603,357.769,251.819,357.022 C252.035,356.275,252.409,355.567,252.94,354.898 C253.471,354.229,254.179,353.669,255.064,353.217 C255.949,352.764,257.06,352.538,258.398,352.538 C260.443,352.538,261.967,353.089,262.97,354.19 C263.973,355.291,264.671,356.904,265.065,359.028 z M251.436,364.338 C251.436,364.338,273.443,364.338,273.443,364.338 C273.6,361.978,273.403,359.716,272.853,357.553 C272.302,355.39,271.407,353.462,270.168,351.771 C268.929,350.08,267.346,348.733,265.419,347.73 C263.491,346.727,261.23,346.225,258.634,346.225 C256.313,346.225,254.199,346.638,252.291,347.464 C250.383,348.29,248.741,349.421,247.365,350.857 C245.988,352.292,244.926,353.993,244.179,355.96 C243.431,357.927,243.058,360.051,243.058,362.332 C243.058,364.692,243.421,366.855,244.149,368.822 C244.877,370.789,245.909,372.48,247.247,373.896 C248.584,375.312,250.216,376.404,252.144,377.171 C254.071,377.938,256.234,378.321,258.634,378.321 C262.095,378.321,265.045,377.534,267.484,375.961 C269.922,374.388,271.732,371.772,272.912,368.114 C272.912,368.114,265.537,368.114,265.537,368.114 C265.261,369.058,264.514,369.953,263.295,370.799 C262.075,371.644,260.62,372.067,258.929,372.067 C256.569,372.067,254.759,371.457,253.501,370.238 C252.242,369.019,251.554,367.052,251.436,364.338 z M278.399,347.051 C278.399,347.051,278.399,377.554,278.399,377.554 C278.399,377.554,286.777,377.554,286.777,377.554 C286.777,377.554,286.777,361.565,286.777,361.565 C286.777,358.458,287.288,356.226,288.311,354.869 C289.333,353.512,290.985,352.833,293.267,352.833 C295.273,352.833,296.669,353.453,297.456,354.692 C298.242,355.931,298.636,357.809,298.636,360.326 C298.636,360.326,298.636,377.554,298.636,377.554 C298.636,377.554,307.014,377.554,307.014,377.554 C307.014,377.554,307.014,358.792,307.014,358.792 C307.014,356.904,306.846,355.183,306.512,353.63 C306.178,352.076,305.598,350.758,304.772,349.677 C303.946,348.595,302.815,347.749,301.379,347.14 C299.943,346.53,298.105,346.225,295.863,346.225 C294.093,346.225,292.362,346.628,290.671,347.435 C288.979,348.241,287.603,349.529,286.541,351.299 C286.541,351.299,286.364,351.299,286.364,351.299 C286.364,351.299,286.364,347.051,286.364,347.051 C286.364,347.051,278.399,347.051,278.399,347.051 z M324.006,347.051 C324.006,347.051,324.006,337.906,324.006,337.906 C324.006,337.906,315.628,337.906,315.628,337.906 C315.628,337.906,315.628,347.051,315.628,347.051 C315.628,347.051,310.554,347.051,310.554,347.051 C310.554,347.051,310.554,352.656,310.554,352.656 C310.554,352.656,315.628,352.656,315.628,352.656 C315.628,352.656,315.628,370.651,315.628,370.651 C315.628,372.185,315.883,373.424,316.395,374.368 C316.906,375.312,317.604,376.04,318.489,376.551 C319.374,377.062,320.397,377.407,321.557,377.584 C322.717,377.761,323.947,377.849,325.245,377.849 C326.071,377.849,326.916,377.829,327.782,377.79 C328.647,377.751,329.434,377.672,330.142,377.554 C330.142,377.554,330.142,371.064,330.142,371.064 C329.748,371.143,329.335,371.202,328.903,371.241 C328.47,371.28,328.018,371.3,327.546,371.3 C326.13,371.3,325.186,371.064,324.714,370.592 C324.242,370.12,324.006,369.176,324.006,367.76 C324.006,367.76,324.006,352.656,324.006,352.656 C324.006,352.656,330.142,352.656,330.142,352.656 C330.142,352.656,330.142,347.051,330.142,347.051 C330.142,347.051,324.006,347.051,324.006,347.051 z M362.769,377.554 C362.769,377.554,362.769,347.051,362.769,347.051 C362.769,347.051,354.391,347.051,354.391,347.051 C354.391,347.051,354.391,363.04,354.391,363.04 C354.391,366.147,353.879,368.38,352.857,369.737 C351.834,371.094,350.182,371.772,347.901,371.772 C345.895,371.772,344.498,371.152,343.712,369.914 C342.925,368.675,342.532,366.796,342.532,364.279 C342.532,364.279,342.532,347.051,342.532,347.051 C342.532,347.051,334.154,347.051,334.154,347.051 C334.154,347.051,334.154,365.813,334.154,365.813 C334.154,367.701,334.321,369.422,334.655,370.976 C334.989,372.529,335.57,373.847,336.396,374.929 C337.222,376.01,338.352,376.846,339.788,377.436 C341.224,378.026,343.063,378.321,345.305,378.321 C347.075,378.321,348.805,377.928,350.497,377.141 C352.188,376.354,353.565,375.076,354.627,373.306 C354.627,373.306,354.804,373.306,354.804,373.306 C354.804,373.306,354.804,377.554,354.804,377.554 C354.804,377.554,362.769,377.554,362.769,377.554 z M369.141,347.051 C369.141,347.051,369.141,377.554,369.141,377.554 C369.141,377.554,377.519,377.554,377.519,377.554 C377.519,377.554,377.519,363.807,377.519,363.807 C377.519,362.43,377.656,361.152,377.932,359.972 C378.207,358.792,378.669,357.76,379.318,356.875 C379.967,355.99,380.823,355.291,381.885,354.78 C382.947,354.269,384.245,354.013,385.779,354.013 C386.29,354.013,386.821,354.043,387.372,354.102 C387.922,354.16,388.394,354.229,388.788,354.308 C388.788,354.308,388.788,346.52,388.788,346.52 C388.119,346.323,387.509,346.225,386.959,346.225 C385.897,346.225,384.874,346.382,383.891,346.697 C382.907,347.012,381.983,347.454,381.118,348.025 C380.252,348.595,379.485,349.283,378.817,350.09 C378.148,350.896,377.617,351.771,377.224,352.715 C377.224,352.715,377.106,352.715,377.106,352.715 C377.106,352.715,377.106,347.051,377.106,347.051 C377.106,347.051,369.141,347.051,369.141,347.051 z M411.562,359.028 C411.562,359.028,397.933,359.028,397.933,359.028 C397.972,358.438,398.1,357.769,398.316,357.022 C398.532,356.275,398.906,355.567,399.437,354.898 C399.968,354.229,400.676,353.669,401.561,353.217 C402.446,352.764,403.557,352.538,404.895,352.538 C406.94,352.538,408.464,353.089,409.467,354.19 C410.47,355.291,411.168,356.904,411.562,359.028 z M397.933,364.338 C397.933,364.338,419.94,364.338,419.94,364.338 C420.097,361.978,419.9,359.716,419.35,357.553 C418.799,355.39,417.904,353.462,416.665,351.771 C415.426,350.08,413.843,348.733,411.916,347.73 C409.988,346.727,407.727,346.225,405.131,346.225 C402.81,346.225,400.696,346.638,398.788,347.464 C396.88,348.29,395.238,349.421,393.862,350.857 C392.485,352.292,391.423,353.993,390.676,355.96 C389.928,357.927,389.555,360.051,389.555,362.332 C389.555,364.692,389.918,366.855,390.646,368.822 C391.374,370.789,392.406,372.48,393.744,373.896 C395.081,375.312,396.713,376.404,398.641,377.171 C400.568,377.938,402.731,378.321,405.131,378.321 C408.592,378.321,411.542,377.534,413.981,375.961 C416.419,374.388,418.229,371.772,419.409,368.114 C419.409,368.114,412.034,368.114,412.034,368.114 C411.758,369.058,411.011,369.953,409.792,370.799 C408.572,371.644,407.117,372.067,405.426,372.067 C403.066,372.067,401.256,371.457,399.998,370.238 C398.739,369.019,398.051,367.052,397.933,364.338 z M166.299,422.332 C166.299,423.591,166.161,424.81,165.886,425.99 C165.61,427.17,165.178,428.212,164.588,429.117 C163.998,430.022,163.26,430.74,162.375,431.271 C161.49,431.802,160.418,432.067,159.16,432.067 C157.94,432.067,156.878,431.802,155.974,431.271 C155.069,430.74,154.322,430.022,153.732,429.117 C153.142,428.212,152.709,427.17,152.434,425.99 C152.158,424.81,152.021,423.591,152.021,422.332 C152.021,421.034,152.158,419.795,152.434,418.615 C152.709,417.435,153.142,416.393,153.732,415.488 C154.322,414.583,155.069,413.866,155.974,413.335 C156.878,412.804,157.94,412.538,159.16,412.538 C160.418,412.538,161.49,412.804,162.375,413.335 C163.26,413.866,163.998,414.583,164.588,415.488 C165.178,416.393,165.61,417.435,165.886,418.615 C166.161,419.795,166.299,421.034,166.299,422.332 z M143.938,395.428 C143.938,395.428,143.938,437.554,143.938,437.554 C143.938,437.554,151.903,437.554,151.903,437.554 C151.903,437.554,151.903,433.66,151.903,433.66 C151.903,433.66,152.021,433.66,152.021,433.66 C152.925,435.351,154.263,436.551,156.033,437.259 C157.803,437.967,159.809,438.321,162.051,438.321 C163.585,438.321,165.099,438.006,166.594,437.377 C168.088,436.748,169.435,435.784,170.635,434.486 C171.835,433.188,172.808,431.526,173.556,429.501 C174.303,427.475,174.677,425.066,174.677,422.273 C174.677,419.48,174.303,417.071,173.556,415.046 C172.808,413.02,171.835,411.358,170.635,410.06 C169.435,408.762,168.088,407.798,166.594,407.169 C165.099,406.54,163.585,406.225,162.051,406.225 C160.163,406.225,158.343,406.589,156.593,407.317 C154.843,408.044,153.456,409.195,152.434,410.768 C152.434,410.768,152.316,410.768,152.316,410.768 C152.316,410.768,152.316,395.428,152.316,395.428 C152.316,395.428,143.938,395.428,143.938,395.428 z M208.602,437.554 C208.602,437.554,208.602,407.051,208.602,407.051 C208.602,407.051,200.224,407.051,200.224,407.051 C200.224,407.051,200.224,423.04,200.224,423.04 C200.224,426.147,199.712,428.38,198.69,429.737 C197.667,431.094,196.015,431.772,193.734,431.772 C191.728,431.772,190.331,431.152,189.545,429.914 C188.758,428.675,188.365,426.796,188.365,424.279 C188.365,424.279,188.365,407.051,188.365,407.051 C188.365,407.051,179.987,407.051,179.987,407.051 C179.987,407.051,179.987,425.813,179.987,425.813 C179.987,427.701,180.154,429.422,180.488,430.976 C180.822,432.529,181.403,433.847,182.229,434.929 C183.055,436.01,184.185,436.846,185.621,437.436 C187.057,438.026,188.896,438.321,191.138,438.321 C192.908,438.321,194.638,437.928,196.33,437.141 C198.021,436.354,199.398,435.076,200.46,433.306 C200.46,433.306,200.637,433.306,200.637,433.306 C200.637,433.306,200.637,437.554,200.637,437.554 C200.637,437.554,208.602,437.554,208.602,437.554 z M223.588,402.331 C223.588,402.331,223.588,395.428,223.588,395.428 C223.588,395.428,215.21,395.428,215.21,395.428 C215.21,395.428,215.21,402.331,215.21,402.331 C215.21,402.331,223.588,402.331,223.588,402.331 z M215.21,407.051 C215.21,407.051,215.21,437.554,215.21,437.554 C215.21,437.554,223.588,437.554,223.588,437.554 C223.588,437.554,223.588,407.051,223.588,407.051 C223.588,407.051,215.21,407.051,215.21,407.051 z M230.432,395.428 C230.432,395.428,230.432,437.554,230.432,437.554 C230.432,437.554,238.81,437.554,238.81,437.554 C238.81,437.554,238.81,395.428,238.81,395.428 C238.81,395.428,230.432,395.428,230.432,395.428 z M267.071,422.214 C267.071,423.473,266.953,424.692,266.717,425.872 C266.481,427.052,266.087,428.104,265.537,429.029 C264.986,429.953,264.248,430.69,263.324,431.241 C262.4,431.792,261.249,432.067,259.873,432.067 C258.575,432.067,257.463,431.782,256.539,431.212 C255.615,430.641,254.848,429.894,254.238,428.97 C253.628,428.045,253.186,426.993,252.911,425.813 C252.635,424.633,252.498,423.453,252.498,422.273 C252.498,421.014,252.625,419.805,252.881,418.645 C253.137,417.484,253.55,416.452,254.12,415.547 C254.69,414.642,255.448,413.915,256.392,413.364 C257.336,412.813,258.496,412.538,259.873,412.538 C261.249,412.538,262.39,412.813,263.295,413.364 C264.199,413.915,264.937,414.633,265.507,415.518 C266.077,416.402,266.481,417.425,266.717,418.586 C266.953,419.746,267.071,420.955,267.071,422.214 z M267.189,433.66 C267.189,433.66,267.189,437.554,267.189,437.554 C267.189,437.554,275.154,437.554,275.154,437.554 C275.154,437.554,275.154,395.428,275.154,395.428 C275.154,395.428,266.776,395.428,266.776,395.428 C266.776,395.428,266.776,410.768,266.776,410.768 C266.776,410.768,266.658,410.768,266.658,410.768 C265.714,409.273,264.425,408.143,262.793,407.376 C261.161,406.609,259.44,406.225,257.631,406.225 C255.389,406.225,253.422,406.668,251.731,407.553 C250.039,408.438,248.633,409.608,247.512,411.063 C246.391,412.518,245.545,414.2,244.975,416.108 C244.405,418.015,244.12,419.992,244.12,422.037 C244.12,424.161,244.405,426.206,244.975,428.173 C245.545,430.14,246.391,431.88,247.512,433.395 C248.633,434.909,250.059,436.109,251.79,436.994 C253.52,437.879,255.526,438.321,257.808,438.321 C259.814,438.321,261.613,437.957,263.206,437.23 C264.799,436.502,266.087,435.312,267.071,433.66 C267.071,433.66,267.189,433.66,267.189,433.66 z M301.999,419.028 C301.999,419.028,288.37,419.028,288.37,419.028 C288.409,418.438,288.537,417.769,288.753,417.022 C288.969,416.275,289.343,415.567,289.874,414.898 C290.405,414.229,291.113,413.669,291.998,413.217 C292.883,412.764,293.994,412.538,295.332,412.538 C297.377,412.538,298.901,413.089,299.904,414.19 C300.907,415.291,301.605,416.904,301.999,419.028 z M288.37,424.338 C288.37,424.338,310.377,424.338,310.377,424.338 C310.534,421.978,310.337,419.716,309.787,417.553 C309.236,415.39,308.341,413.462,307.102,411.771 C305.863,410.08,304.28,408.733,302.353,407.73 C300.425,406.727,298.164,406.225,295.568,406.225 C293.247,406.225,291.133,406.638,289.225,407.464 C287.317,408.29,285.675,409.421,284.299,410.857 C282.922,412.292,281.86,413.993,281.113,415.96 C280.365,417.927,279.992,420.051,279.992,422.332 C279.992,424.692,280.355,426.855,281.083,428.822 C281.811,430.789,282.843,432.48,284.181,433.896 C285.518,435.312,287.15,436.404,289.078,437.171 C291.005,437.938,293.168,438.321,295.568,438.321 C299.029,438.321,301.979,437.534,304.418,435.961 C306.856,434.388,308.666,431.772,309.846,428.114 C309.846,428.114,302.471,428.114,302.471,428.114 C302.195,429.058,301.448,429.953,300.229,430.799 C299.009,431.644,297.554,432.067,295.863,432.067 C293.503,432.067,291.693,431.457,290.435,430.238 C289.176,429.019,288.488,427.052,288.37,424.338 z M315.333,407.051 C315.333,407.051,315.333,437.554,315.333,437.554 C315.333,437.554,323.711,437.554,323.711,437.554 C323.711,437.554,323.711,423.807,323.711,423.807 C323.711,422.43,323.848,421.152,324.124,419.972 C324.399,418.792,324.861,417.76,325.51,416.875 C326.159,415.99,327.015,415.291,328.077,414.78 C329.139,414.269,330.437,414.013,331.971,414.013 C332.482,414.013,333.013,414.043,333.564,414.102 C334.114,414.16,334.586,414.229,334.98,414.308 C334.98,414.308,334.98,406.52,334.98,406.52 C334.311,406.323,333.701,406.225,333.151,406.225 C332.089,406.225,331.066,406.382,330.083,406.697 C329.099,407.012,328.175,407.454,327.31,408.025 C326.444,408.595,325.677,409.283,325.009,410.09 C324.34,410.896,323.809,411.771,323.416,412.715 C323.416,412.715,323.298,412.715,323.298,412.715 C323.298,412.715,323.298,407.051,323.298,407.051 C323.298,407.051,315.333,407.051,315.333,407.051 z"/>
      </g>
    </g>
    <g id="Path">
      <path style="fill:#000000;fill-opacity:1;fill-rule:nonzero;opacity:1;stroke:none;" d="M-458.131,289.673 C-211.105,273.032,35.922,256.392,282.949,256.392 C529.975,256.392,777.002,273.032,1024.03,289.673 C1024.03,267.485,1024.03,245.298,1024.03,223.11 C777.002,239.751,529.975,256.391,282.949,256.392 C35.922,256.391,-211.105,239.751,-458.131,223.11 C-458.131,245.298,-458.131,267.485,-458.131,289.673 z"/>
    </g>
    <g id="Group">
      <path id="Path" style="fill:#000000;fill-opacity:1;fill-rule:nonzero;opacity:1;stroke:none;" d="M844.305,424.513 C847.936,424.472,850.335,420.726,848.857,417.409 C816.571,344.944,734.942,310.75,719.727,320.689 C719.727,320.689,765.287,372.547,711.692,408.214 C686.078,425.261,811.885,424.885,844.305,424.513 z"/>
      <g id="Path">
        <path style="fill:#000000;fill-opacity:1;fill-rule:nonzero;opacity:1;stroke:none;" d="M528.2,386.178 C542.983,393.602,559.481,398.266,576.37,399.743 C576.375,399.744,576.381,399.744,576.387,399.744 C588.958,400.802,597.824,399.992,604.7,398.818 C611.592,397.621,616.3,396.207,620.721,395.707 C621.938,395.562,623.153,395.472,624.44,395.45 C630.957,395.33,637.382,396.719,644.353,398.251 C651.298,399.758,658.758,401.364,666.858,400.964 C666.915,400.964,666.972,400.963,667.029,400.963 C676.418,400.04,684.741,396.578,692.766,393.289 C698.053,391.117,703.197,388.697,708.277,386.178 C708.277,386.178,708.277,386.178,708.277,386.178 C702.821,387.721,697.341,389.148,691.845,390.325 C683.347,392.166,674.858,393.997,666.816,393.577 C666.873,393.577,666.93,393.576,666.987,393.576 C660.091,392.913,653.767,390.755,646.943,388.576 C640.145,386.422,632.816,384.205,624.4,384.138 C622.663,384.127,621.006,384.227,619.412,384.408 C613.515,385.102,608.74,386.7,602.571,388.097 C596.385,389.516,588.611,390.883,576.547,391.464 C576.553,391.464,576.558,391.464,576.564,391.464 C560.533,392.171,544.116,390.751,528.2,386.178 C528.2,386.178,528.2,386.178,528.2,386.178 z"/>
      </g>
      <g id="Path Copy">
        <path style="fill:#000000;fill-opacity:1;fill-rule:nonzero;opacity:1;stroke:none;" d="M614.42,433.658 C621.858,434.338,629.037,433.107,636.021,431.715 C643.025,430.313,649.769,428.82,656.82,428.684 C656.869,428.683,656.918,428.682,656.966,428.681 C656.928,428.681,656.889,428.681,656.85,428.68 C665.074,428.9,673.416,431.007,681.891,432.979 C687.364,434.243,692.832,435.701,698.277,437.273 C698.277,437.273,698.277,437.273,698.277,437.273 C693.186,434.785,688.03,432.395,682.72,430.311 C674.672,427.152,666.202,423.966,656.995,423.683 C656.976,423.682,656.958,423.682,656.939,423.681 C656.919,423.681,656.899,423.682,656.879,423.682 C656.825,423.683,656.771,423.684,656.717,423.685 C648.841,423.859,641.851,426.128,635.134,428.399 C628.396,430.679,621.864,433.03,614.42,433.658 C614.42,433.658,614.42,433.658,614.42,433.658 z"/>
      </g>
      <path id="Path" style="fill:#000000;fill-opacity:1;fill-rule:nonzero;opacity:1;stroke:none;" d="M863.865,412.525 C863.865,412.525,895.608,416.805,893.847,430.058 C893.043,436.107,862.297,445.121,802.898,443.494 C802.898,443.494,867.352,443.357,873.669,425.653 C875.358,420.919,863.865,412.525,863.865,412.525 z"/>
    </g>
    <g id="Text">
      <g id="Text">
        <path style="fill:#000000;fill-opacity:1;fill-rule:nonzero;opacity:1;stroke:none;" d="M164.568,269.857 C164.568,269.857,143.136,269.857,143.136,269.857 C143.042,276.061,144.17,281.419,146.52,285.931 C148.87,290.443,152.042,294.156,156.037,297.07 C160.032,299.984,164.638,302.123,169.855,303.486 C175.072,304.849,180.454,305.53,186,305.53 C192.862,305.53,198.901,304.731,204.118,303.133 C209.335,301.535,213.706,299.303,217.231,296.436 C220.756,293.569,223.412,290.161,225.198,286.213 C226.984,282.265,227.877,277.988,227.877,273.382 C227.877,267.742,226.678,263.113,224.281,259.494 C221.884,255.875,219.041,252.984,215.751,250.822 C212.461,248.66,209.147,247.086,205.81,246.099 C202.473,245.112,199.865,244.43,197.985,244.054 C191.687,242.456,186.587,241.14,182.686,240.106 C178.785,239.072,175.73,238.038,173.521,237.004 C171.312,235.97,169.832,234.842,169.08,233.62 C168.328,232.398,167.952,230.8,167.952,228.826 C167.952,226.664,168.422,224.878,169.362,223.468 C170.302,222.058,171.5,220.883,172.957,219.943 C174.414,219.003,176.036,218.345,177.822,217.969 C179.608,217.593,181.394,217.405,183.18,217.405 C185.906,217.405,188.42,217.64,190.723,218.11 C193.026,218.58,195.071,219.379,196.857,220.507 C198.643,221.635,200.076,223.186,201.157,225.16 C202.238,227.134,202.873,229.625,203.061,232.633 C203.061,232.633,224.493,232.633,224.493,232.633 C224.493,226.805,223.388,221.847,221.179,217.758 C218.97,213.669,215.986,210.308,212.226,207.676 C208.466,205.044,204.165,203.141,199.324,201.966 C194.483,200.791,189.431,200.203,184.167,200.203 C179.655,200.203,175.143,200.814,170.631,202.036 C166.119,203.258,162.077,205.138,158.505,207.676 C154.933,210.214,152.042,213.387,149.833,217.194 C147.624,221.001,146.52,225.489,146.52,230.659 C146.52,235.265,147.389,239.19,149.128,242.433 C150.867,245.676,153.147,248.378,155.967,250.54 C158.787,252.702,161.983,254.465,165.555,255.828 C169.127,257.191,172.793,258.342,176.553,259.282 C180.219,260.316,183.838,261.256,187.41,262.102 C190.982,262.948,194.178,263.935,196.998,265.063 C199.818,266.191,202.097,267.601,203.836,269.293 C205.575,270.985,206.445,273.194,206.445,275.92 C206.445,278.458,205.787,280.55,204.471,282.195 C203.155,283.84,201.51,285.132,199.536,286.072 C197.562,287.012,195.447,287.647,193.191,287.976 C190.935,288.305,188.82,288.469,186.846,288.469 C183.932,288.469,181.112,288.117,178.386,287.412 C175.66,286.707,173.286,285.626,171.265,284.169 C169.244,282.712,167.623,280.808,166.401,278.458 C165.179,276.108,164.568,273.241,164.568,269.857 z M307.26,276.484 C309.14,273.946,310.644,270.797,311.772,267.037 C312.9,263.277,313.464,258.718,313.464,253.36 C313.464,248.942,312.97,244.665,311.983,240.529 C310.996,236.393,309.422,232.704,307.26,229.461 C305.098,226.218,302.278,223.633,298.8,221.706 C295.322,219.779,291.092,218.815,286.11,218.815 C281.128,218.815,276.898,219.779,273.42,221.706 C269.942,223.633,267.122,226.218,264.96,229.461 C262.798,232.704,261.223,236.393,260.236,240.529 C259.249,244.665,258.756,248.942,258.756,253.36 C258.756,257.59,259.249,261.703,260.236,265.698 C261.223,269.693,262.798,273.288,264.96,276.484 C267.122,279.68,269.942,282.242,273.42,284.169 C276.898,286.096,281.128,287.059,286.11,287.059 C288.46,287.059,290.246,286.965,291.468,286.777 C292.69,286.589,293.865,286.213,294.993,285.649 C294.993,285.649,285.546,277.048,285.546,277.048 C285.546,277.048,295.839,266.05,295.839,266.05 C295.839,266.05,307.26,276.484,307.26,276.484 z M310.503,299.749 C303.829,303.603,295.698,305.53,286.11,305.53 C278.402,305.53,271.469,304.191,265.312,301.512 C259.155,298.833,253.962,295.143,249.732,290.443 C245.502,285.743,242.259,280.221,240.003,273.876 C237.747,267.531,236.619,260.692,236.619,253.36 C236.619,245.84,237.747,238.861,240.003,232.422 C242.259,225.983,245.502,220.366,249.732,215.572 C253.962,210.778,259.155,207.018,265.312,204.292 C271.469,201.566,278.402,200.203,286.11,200.203 C293.912,200.203,300.868,201.566,306.978,204.292 C313.088,207.018,318.258,210.778,322.488,215.572 C326.718,220.366,329.961,225.983,332.217,232.422 C334.473,238.861,335.601,245.84,335.601,253.36 C335.601,260.692,334.473,267.507,332.217,273.805 C329.961,280.103,326.718,285.649,322.488,290.443 C322.488,290.443,335.037,301.864,335.037,301.864 C335.037,301.864,324.744,312.58,324.744,312.58 C324.744,312.58,310.503,299.749,310.503,299.749 z M350.688,202.6 C350.688,202.6,350.688,303.274,350.688,303.274 C350.688,303.274,421.893,303.274,421.893,303.274 C421.893,303.274,421.893,284.662,421.893,284.662 C421.893,284.662,372.825,284.662,372.825,284.662 C372.825,284.662,372.825,202.6,372.825,202.6 C372.825,202.6,350.688,202.6,350.688,202.6 z"/>
      </g>
    </g>
  </g>
</svg>
